<svg width="48" height="48" viewBox="0 0 48 48" fill="none" xmlns="http://www.w3.org/2000/svg">
<path d="M29.001 23.4998C30.3817 23.4998 31.501 22.3805 31.501 20.9998C31.501 19.619 30.3817 18.4998 29.001 18.4998C27.6203 18.4998 26.501 19.619 26.501 20.9998C26.501 22.3805 27.6203 23.4998 29.001 23.4998Z" fill="#303030"/>
<path d="M19 23.5C20.3807 23.5 21.5 22.3807 21.5 21C21.5 19.6193 20.3807 18.5 19 18.5C17.6193 18.5 16.5 19.6193 16.5 21C16.5 22.3807 17.6193 23.5 19 23.5Z" fill="#303030"/>
<path d="M32.199 28H15.799C15.419 28 15.159 28.4 15.339 28.74C16.999 31.88 20.259 34 23.999 34C27.739 34 30.999 31.88 32.659 28.74C32.6946 28.6615 32.7103 28.5755 32.7046 28.4895C32.699 28.4035 32.6723 28.3203 32.6268 28.2471C32.5813 28.1739 32.5184 28.1131 32.4438 28.07C32.3692 28.0269 32.2851 28.0028 32.199 28ZM45.879 22.68C45.6275 21.204 44.9678 19.8278 43.9745 18.7073C42.9813 17.5868 41.6942 16.7668 40.259 16.34C39.2061 14.1247 37.7163 12.145 35.879 10.52C32.719 7.7 28.559 6 23.999 6C19.439 6 15.279 7.7 12.119 10.52C10.279 12.14 8.77902 14.12 7.73902 16.34C6.30153 16.7626 5.01206 17.5814 4.01816 18.7026C3.02427 19.8238 2.36612 21.2022 2.11902 22.68C2.03902 23.1 1.99902 23.54 1.99902 24C1.99902 24.46 2.03902 24.9 2.11902 25.32C2.37056 26.796 3.03029 28.1722 4.02352 29.2927C5.01675 30.4132 6.30382 31.2332 7.73902 31.66C8.78 33.8603 10.2564 35.8266 12.079 37.44C15.239 40.28 19.419 42 23.999 42C28.579 42 32.759 40.28 35.939 37.44C37.739 35.84 39.239 33.86 40.279 31.66C41.7117 31.2321 42.9957 30.4113 43.9855 29.2907C44.9753 28.1701 45.6313 26.7945 45.879 25.32C45.959 24.9 45.999 24.46 45.999 24C45.999 23.54 45.959 23.1 45.879 22.68ZM37.999 28C37.799 28 37.619 27.96 37.419 27.94C37.019 29.28 36.439 30.52 35.699 31.66C33.199 35.48 28.899 38 23.999 38C19.099 38 14.799 35.48 12.299 31.66C11.559 30.52 10.979 29.28 10.579 27.94C10.379 27.96 10.199 28 9.99902 28C7.79902 28 5.99902 26.2 5.99902 24C5.99902 21.8 7.79902 20 9.99902 20C10.199 20 10.379 20.04 10.579 20.06C10.979 18.72 11.559 17.48 12.299 16.34C14.799 12.52 19.099 10 23.999 10C28.899 10 33.199 12.52 35.699 16.34C36.439 17.48 37.019 18.72 37.419 20.06C37.619 20.04 37.799 20 37.999 20C40.199 20 41.999 21.8 41.999 24C41.999 26.2 40.199 28 37.999 28Z" fill="#303030"/>
</svg>
