<svg width="48" height="48" viewBox="0 0 48 48" fill="none" xmlns="http://www.w3.org/2000/svg">
<path d="M30 22.0001V11.6601C30 10.6001 29.58 9.58009 28.82 8.84009L25.4 5.42009C25.215 5.23469 24.9952 5.08759 24.7532 4.98723C24.5113 4.88686 24.2519 4.83521 23.99 4.83521C23.7281 4.83521 23.4687 4.88686 23.2268 4.98723C22.9848 5.08759 22.765 5.23469 22.58 5.42009L19.18 8.82009C18.42 9.58009 18 10.6001 18 11.6601V14.0001H10C7.8 14.0001 6 15.8001 6 18.0001V38.0001C6 40.2001 7.8 42.0001 10 42.0001H38C40.2 42.0001 42 40.2001 42 38.0001V26.0001C42 23.8001 40.2 22.0001 38 22.0001H30ZM14 38.0001H10V34.0001H14V38.0001ZM14 30.0001H10V26.0001H14V30.0001ZM14 22.0001H10V18.0001H14V22.0001ZM26 38.0001H22V34.0001H26V38.0001ZM26 30.0001H22V26.0001H26V30.0001ZM26 22.0001H22V18.0001H26V22.0001ZM26 14.0001H22V10.0001H26V14.0001ZM38 38.0001H34V34.0001H38V38.0001ZM38 30.0001H34V26.0001H38V30.0001Z" fill="#303030"/>
</svg>
