<svg width="48" height="48" viewBox="0 0 48 48" fill="none" xmlns="http://www.w3.org/2000/svg">
<path d="M11.753 13.7739L11.7534 13.7735C12.3381 13.1888 13.3015 13.1888 13.8863 13.7735L23.0463 22.9335L23.0466 22.9339C23.1855 23.0725 23.2957 23.2371 23.3709 23.4183C23.446 23.5995 23.4847 23.7938 23.4847 23.99C23.4847 24.1861 23.446 24.3804 23.3709 24.5616C23.2957 24.7428 23.1855 24.9075 23.0466 25.046L23.0463 25.0464L13.8663 34.2264C13.7275 34.3651 13.5628 34.4752 13.3816 34.5503C13.2003 34.6254 13.006 34.664 12.8098 34.664C12.6136 34.664 12.4193 34.6254 12.2381 34.5503C12.0568 34.4752 11.8921 34.3651 11.7534 34.2264C11.6146 34.0877 11.5046 33.923 11.4295 33.7417C11.3544 33.5604 11.3158 33.3662 11.3158 33.17C11.3158 32.9738 11.3544 32.7795 11.4295 32.5982C11.5046 32.417 11.6146 32.2522 11.7534 32.1135L19.5134 24.3535L19.8669 24L19.5134 23.6464L11.7534 15.8864L11.753 15.886C11.6142 15.7475 11.504 15.5828 11.4288 15.4016C11.3536 15.2204 11.3149 15.0262 11.3149 14.83C11.3149 14.6338 11.3536 14.4395 11.4288 14.2583C11.504 14.0771 11.6142 13.9125 11.753 13.7739Z" fill="#303030" stroke="#303030"/>
<path d="M24.9332 13.774L24.9336 13.7736C25.5216 13.1856 26.485 13.1921 27.0465 13.7536L36.2265 22.9336L36.2268 22.934C36.3657 23.0725 36.4759 23.2372 36.551 23.4184C36.6262 23.5996 36.6649 23.7938 36.6649 23.99C36.6649 24.1862 36.6262 24.3805 36.551 24.5617C36.4759 24.7429 36.3657 24.9075 36.2268 25.0461L36.2265 25.0465L27.0465 34.2265C26.7663 34.5067 26.3863 34.6641 25.99 34.6641C25.5938 34.6641 25.2137 34.5067 24.9336 34.2265C24.6534 33.9463 24.496 33.5663 24.496 33.17C24.496 32.7738 24.6534 32.3938 24.9336 32.1136L32.6936 24.3536L33.0471 24L32.6936 23.6465L24.9336 15.8865L24.9332 15.8861C24.7943 15.7475 24.6842 15.5829 24.609 15.4017C24.5338 15.2205 24.4951 15.0262 24.4951 14.83C24.4951 14.6339 24.5338 14.4396 24.609 14.2584C24.6842 14.0772 24.7943 13.9125 24.9332 13.774Z" fill="#303030" stroke="#303030"/>
</svg>
