<svg width="48" height="48" viewBox="0 0 48 48" fill="none" xmlns="http://www.w3.org/2000/svg">
<path d="M23.981 4.00024C12.941 4.00024 4.00098 12.9602 4.00098 24.0002C4.00098 35.0402 12.941 44.0002 23.981 44.0002C35.041 44.0002 44.001 35.0402 44.001 24.0002C44.001 12.9602 35.041 4.00024 23.981 4.00024ZM37.841 16.0002H31.941C31.3141 13.5235 30.3872 11.1325 29.181 8.88024C32.8292 10.1362 35.9033 12.6637 37.841 16.0002ZM24.001 8.08024C25.661 10.4802 26.961 13.1402 27.821 16.0002H20.181C21.041 13.1402 22.341 10.4802 24.001 8.08024ZM8.52098 28.0002C8.20098 26.7202 8.00098 25.3802 8.00098 24.0002C8.00098 22.6202 8.20098 21.2802 8.52098 20.0002H15.281C15.121 21.3202 15.001 22.6402 15.001 24.0002C15.001 25.3602 15.121 26.6802 15.281 28.0002H8.52098ZM10.161 32.0002H16.061C16.701 34.5002 17.621 36.9002 18.821 39.1202C15.1701 37.869 12.0945 35.3403 10.161 32.0002ZM16.061 16.0002H10.161C12.0945 12.6601 15.1701 10.1315 18.821 8.88024C17.6147 11.1325 16.6879 13.5235 16.061 16.0002ZM24.001 39.9202C22.341 37.5202 21.041 34.8602 20.181 32.0002H27.821C26.961 34.8602 25.661 37.5202 24.001 39.9202ZM28.681 28.0002H19.321C19.141 26.6802 19.001 25.3602 19.001 24.0002C19.001 22.6402 19.141 21.3002 19.321 20.0002H28.681C28.861 21.3002 29.001 22.6402 29.001 24.0002C29.001 25.3602 28.861 26.6802 28.681 28.0002ZM29.181 39.1202C30.381 36.9002 31.301 34.5002 31.941 32.0002H37.841C35.9033 35.3368 32.8292 37.8642 29.181 39.1202ZM32.721 28.0002C32.881 26.6802 33.001 25.3602 33.001 24.0002C33.001 22.6402 32.881 21.3202 32.721 20.0002H39.481C39.801 21.2802 40.001 22.6202 40.001 24.0002C40.001 25.3802 39.801 26.7202 39.481 28.0002H32.721Z" fill="#303030"/>
</svg>
