<svg width="30" height="31" viewBox="0 0 30 31" fill="none" xmlns="http://www.w3.org/2000/svg">
<path d="M15 3C10.1625 3 6.25 6.9125 6.25 11.75C6.25 18.3125 15 28 15 28C15 28 23.75 18.3125 23.75 11.75C23.75 6.9125 19.8375 3 15 3ZM15 14.875C14.1712 14.875 13.3763 14.5458 12.7903 13.9597C12.2042 13.3737 11.875 12.5788 11.875 11.75C11.875 10.9212 12.2042 10.1263 12.7903 9.54029C13.3763 8.95424 14.1712 8.625 15 8.625C15.8288 8.625 16.6237 8.95424 17.2097 9.54029C17.7958 10.1263 18.125 10.9212 18.125 11.75C18.125 12.5788 17.7958 13.3737 17.2097 13.9597C16.6237 14.5458 15.8288 14.875 15 14.875Z" fill="#189EF1"/>
</svg>
