<svg width="48" height="48" viewBox="0 0 48 48" fill="none" xmlns="http://www.w3.org/2000/svg">
<path d="M27.42 42.6C28.2 43.38 29.46 43.38 30.24 42.6L34 38.82L37.78 42.6C37.9652 42.7852 38.185 42.932 38.4269 43.0323C38.6688 43.1325 38.9281 43.184 39.19 43.184C39.4519 43.184 39.7112 43.1325 39.9531 43.0323C40.195 42.932 40.4148 42.7852 40.6 42.6C40.7852 42.4148 40.932 42.195 41.0323 41.9531C41.1325 41.7112 41.184 41.4519 41.184 41.19C41.184 40.9281 41.1325 40.6688 41.0323 40.4269C40.932 40.185 40.7852 39.9652 40.6 39.78L36.82 36L40.6 32.22C40.7852 32.0348 40.932 31.815 41.0323 31.5731C41.1325 31.3312 41.184 31.0719 41.184 30.81C41.184 30.5481 41.1325 30.2888 41.0323 30.0469C40.932 29.805 40.7852 29.5852 40.6 29.4C40.4148 29.2148 40.195 29.068 39.9531 28.9677C39.7112 28.8675 39.4519 28.816 39.19 28.816C38.9281 28.816 38.6688 28.8675 38.4269 28.9677C38.185 29.068 37.9652 29.2148 37.78 29.4L34 33.18L30.22 29.4C29.846 29.026 29.3389 28.816 28.81 28.816C28.2811 28.816 27.774 29.026 27.4 29.4C27.026 29.774 26.816 30.2811 26.816 30.81C26.816 31.3389 27.026 31.846 27.4 32.22L31.18 36L27.4 39.78C26.64 40.54 26.64 41.82 27.42 42.6ZM28 22C28 20.9 27.1 20 26 20H8C6.9 20 6 20.9 6 22C6 23.1 6.9 24 8 24H26C27.1 24 28 23.1 28 22ZM28 14C28 12.9 27.1 12 26 12H8C6.9 12 6 12.9 6 14C6 15.1 6.9 16 8 16H26C27.1 16 28 15.1 28 14ZM6 30C6 31.1 6.9 32 8 32H18C19.1 32 20 31.1 20 30C20 28.9 19.1 28 18 28H8C6.9 28 6 28.9 6 30Z" fill="#303030"/>
</svg>
