<svg width="48" height="48" viewBox="0 0 48 48" fill="none" xmlns="http://www.w3.org/2000/svg">
<path d="M42.8036 11.0745H18.2143C17.8307 11.0745 17.4628 11.2261 17.1915 11.4961C16.9202 11.7661 16.7679 12.1322 16.7679 12.514C16.7679 12.8958 16.9202 13.2619 17.1915 13.5319C17.4628 13.8019 17.8307 13.9535 18.2143 13.9535H41.3571V34.1069C40.9735 34.1069 40.6056 34.2586 40.3344 34.5286C40.0631 34.7985 39.9107 35.1647 39.9107 35.5465C39.9107 35.9283 40.0631 36.2944 40.3344 36.5644C40.6056 36.8343 40.9735 36.986 41.3571 36.986H42.8036C43.1872 36.986 43.5551 36.8343 43.8264 36.5644C44.0976 36.2944 44.25 35.9283 44.25 35.5465V12.514C44.25 12.1322 44.0976 11.7661 43.8264 11.4961C43.5551 11.2261 43.1872 11.0745 42.8036 11.0745Z" fill="#303030"/>
<path d="M28.3393 24.0302C28.3393 24.412 28.4917 24.7782 28.7629 25.0481C29.0342 25.3181 29.4021 25.4698 29.7857 25.4698C30.1693 25.4698 30.5372 25.3181 30.8085 25.0481C31.0798 24.7782 31.2321 24.412 31.2321 24.0302C31.2321 22.1213 30.4702 20.2906 29.1139 18.9407C27.7576 17.5909 25.9181 16.8326 24 16.8326C23.6164 16.8326 23.2485 16.9843 22.9772 17.2542C22.706 17.5242 22.5536 17.8903 22.5536 18.2721C22.5536 18.6539 22.706 19.0201 22.9772 19.29C23.2485 19.56 23.6164 19.7116 24 19.7116C25.1509 19.7116 26.2546 20.1666 27.0683 20.9765C27.8821 21.7864 28.3393 22.8849 28.3393 24.0302Z" fill="#303030"/>
<path d="M7.66982 7.17335C7.39745 6.90228 7.02804 6.75 6.64286 6.75C6.25767 6.75 5.88826 6.90228 5.61589 7.17335C5.34352 7.44442 5.19051 7.81207 5.19051 8.19542C5.19051 8.57877 5.34352 8.94642 5.61589 9.21748L7.49625 11.0745H5.19643C4.81281 11.0745 4.44491 11.2261 4.17365 11.4961C3.90239 11.7661 3.75 12.1322 3.75 12.514V35.5465C3.75 35.9283 3.90239 36.2944 4.17365 36.5644C4.44491 36.8343 4.81281 36.986 5.19643 36.986H33.532L38.8838 42.3266C39.1561 42.5977 39.5255 42.75 39.9107 42.75C40.2959 42.75 40.6653 42.5977 40.9377 42.3266C41.21 42.0556 41.3631 41.6879 41.3631 41.3046C41.3631 40.9212 41.21 40.5536 40.9377 40.2825L7.66982 7.17335ZM19.733 23.2673L24.7666 28.3488C24.5115 28.3708 24.2551 28.3708 24 28.3488C22.8491 28.3488 21.7454 27.8938 20.9317 27.0839C20.1179 26.274 19.6607 25.1756 19.6607 24.0302C19.6626 23.7743 19.6868 23.519 19.733 23.2673ZM6.64286 34.1069V13.9535H10.3891L17.4621 20.9928C16.8461 22.3286 16.6556 23.82 16.9164 25.2666C17.1772 26.7132 17.8768 28.0457 18.921 29.085C19.9653 30.1243 21.3041 30.8204 22.7577 31.08C24.2113 31.3396 25.7098 31.15 27.052 30.5369L30.6391 34.1069H6.64286Z" fill="#303030"/>
</svg>
