<svg width="48" height="48" viewBox="0 0 48 48" fill="none" xmlns="http://www.w3.org/2000/svg">
<path d="M23.9998 4.80005L27.7247 8.08923L32.5446 6.70145L34.4368 11.2406L39.397 12.029L39.0818 16.9191L43.1998 19.7276L40.7395 24L43.1998 28.2725L39.0818 31.081L39.397 35.9711L34.4368 36.7595L32.5446 41.2987L27.7247 39.9109L23.9998 43.2001L20.2749 39.9109L15.455 41.2987L13.5628 36.7595L8.6026 35.9711L8.91786 31.081L4.7998 28.2725L7.26011 24L4.7998 19.7276L8.91786 16.9191L8.6026 12.029L13.5628 11.2406L15.455 6.70145L20.2749 8.08923L23.9998 4.80005Z" fill="#303030"/>
<path d="M21.0459 28.0031L17.629 24.6719C17.4449 24.4924 17.1952 24.3916 16.9348 24.3916C16.6744 24.3916 16.4247 24.4924 16.2406 24.6719C16.0565 24.8514 15.953 25.0948 15.953 25.3487C15.953 25.4744 15.9784 25.5988 16.0278 25.715C16.0771 25.8311 16.1494 25.9366 16.2406 26.0255L20.3566 30.0383C20.7406 30.4127 21.361 30.4127 21.745 30.0383L32.163 19.8815C32.3471 19.702 32.4505 19.4585 32.4505 19.2047C32.4505 18.9508 32.3471 18.7074 32.163 18.5279C31.9789 18.3484 31.7292 18.2475 31.4688 18.2475C31.2084 18.2475 30.9587 18.3484 30.7746 18.5279L21.0459 28.0031Z" fill="white"/>
</svg>
