<svg width="140" height="50" viewBox="0 0 140 50" fill="none" xmlns="http://www.w3.org/2000/svg">
<path d="M33.6873 38.0124C29.9794 40.4763 24.4713 39.9298 21.6045 36.8326C18.8555 33.8633 19.7112 29.7699 23.3158 27.641C23.4847 27.5425 23.6578 27.447 23.8354 27.3574L27.2028 33.2491C27.6932 34.113 28.9374 34.113 29.4337 33.2491L32.3121 28.2037C32.5828 27.7277 33.194 27.5925 33.6481 27.8922C34.0046 28.1273 34.3422 28.3903 34.6507 28.6783C37.6107 31.4361 37.2789 35.6278 33.6873 38.0124Z" fill="#189EF1"/>
<path d="M45.0499 23.0467L40.3975 33.8677C40.0846 34.2071 39.2944 33.8868 39.3032 33.4196C39.3541 31.5213 38.4286 29.4923 36.5819 27.8291C35.9416 27.2517 35.2358 26.7595 34.4863 26.3525C34.0192 26.0983 33.8475 25.5121 34.1123 25.0478L34.2011 24.8921L34.5154 24.3426C34.6726 24.0663 34.9564 23.89 35.2721 23.8709L44.2277 22.456C44.6628 22.3003 45.3075 22.7631 45.0514 23.0467H45.0499Z" fill="#9AD5F9"/>
<path d="M26.3981 42.5186C26.9351 42.3056 26.7139 41.5475 26.0911 41.4696C23.5153 41.1493 20.9875 39.9254 19.2325 37.9537C17.5226 36.0334 16.9129 33.8148 17.2941 31.8563C17.3844 31.392 16.6524 31.0747 16.2813 31.4111L7.00122 42.7434C6.44095 43.2518 6.95611 44.0981 7.6619 43.8189L26.3996 42.5186H26.3981Z" fill="#1082C9"/>
<path d="M28.7353 6.13552C28.5955 6.13112 28.4544 6.12671 28.3147 6.12671C28.175 6.12671 28.0338 6.13112 27.8941 6.13552C21.6322 6.41909 17.9898 13.4627 21.1229 18.9488L23.7045 23.4624L25.5555 26.7065L27.4401 30.002C27.8286 30.6823 28.8007 30.6823 29.1893 30.002L31.0549 26.73L31.8684 25.3092L32.5975 24.0295L32.9205 23.4624L35.5021 18.9488C38.6396 13.4627 35.0015 6.41909 28.7353 6.13552ZM28.3234 18.8783C25.9485 18.8783 24.0174 16.9286 24.0174 14.5249C24.0174 13.5053 24.3637 12.5708 24.9473 11.8289C25.7375 10.8239 26.9584 10.176 28.3234 10.176C29.6884 10.176 30.9137 10.8224 31.7083 11.8289C31.7083 11.8333 31.7127 11.8377 31.7127 11.8436L31.717 11.848C32.2919 12.5841 32.6338 13.5141 32.6338 14.5249C32.6338 16.9286 30.7071 18.8783 28.322 18.8783H28.3234Z" fill="#189EF1"/>
<path d="M28.3263 17.4899C29.9474 17.4899 31.2616 16.1631 31.2616 14.5265C31.2616 12.8898 29.9474 11.563 28.3263 11.563C26.7053 11.563 25.3911 12.8898 25.3911 14.5265C25.3911 16.1631 26.7053 17.4899 28.3263 17.4899Z" fill="#1082C9"/>
<path d="M62.2406 28.2035L66.8435 28.9837C66.2512 30.688 65.3169 31.9853 64.0407 32.8757C62.7644 33.7661 61.1666 34.2127 59.2486 34.2127C56.2129 34.2127 53.9646 33.2107 52.5079 31.2081C51.3568 29.6037 50.782 27.5791 50.782 25.1328C50.782 22.2119 51.5387 19.9228 53.0507 18.2684C54.5627 16.6141 56.4763 15.7869 58.7887 15.7869C61.3863 15.7869 63.4353 16.6523 64.9371 18.3845C66.4389 20.1167 67.1564 22.7702 67.0909 26.3434H55.5159C55.5494 27.7275 55.9219 28.8029 56.6335 29.5714C57.3466 30.3412 58.2343 30.7247 59.2966 30.7247C60.0199 30.7247 60.6281 30.5264 61.1215 30.1267C61.6148 29.7286 61.9873 29.0865 62.2391 28.2005L62.2406 28.2035ZM62.504 23.4887C62.4705 22.1384 62.1256 21.1129 61.4678 20.4091C60.8101 19.7068 60.0097 19.3557 59.0681 19.3557C58.0596 19.3557 57.2272 19.7259 56.5695 20.4679C55.9117 21.2099 55.5886 22.2163 55.5988 23.4887H62.504Z" fill="#303030"/>
<path d="M67.7632 34.1525L74.06 25.0725L68.0266 16.5244H73.6656L76.7566 21.3715L80.0119 16.5244H85.4371L79.5186 24.8742L85.9799 34.1539H80.3074L76.7566 28.6927L73.1723 34.1539H67.7632V34.1525Z" fill="#303030"/>
<path d="M102.625 21.7361L98.0715 22.5662C97.9173 21.6479 97.5695 20.9559 97.0281 20.4916C96.4853 20.0273 95.781 19.7937 94.9151 19.7937C93.764 19.7937 92.8458 20.1948 92.1618 20.997C91.4764 21.7992 91.1344 23.1407 91.1344 25.0228C91.1344 27.1135 91.4822 28.5916 92.1778 29.4555C92.8734 30.3194 93.8077 30.7499 94.9806 30.7499C95.8567 30.7499 96.5755 30.4986 97.1344 29.9947C97.6932 29.4907 98.0875 28.6254 98.3175 27.3971L102.855 28.1772C102.383 30.2797 101.48 31.868 100.142 32.942C98.805 34.016 97.0136 34.5523 94.7667 34.5523C92.2127 34.5523 90.1769 33.7383 88.659 32.1119C87.1412 30.4854 86.3816 28.2331 86.3816 25.3563C86.3816 22.4795 87.1427 20.1801 88.6663 18.5595C90.1899 16.939 92.2506 16.1279 94.8482 16.1279C96.9743 16.1279 98.6653 16.5907 99.9197 17.5134C101.174 18.4376 102.076 19.8451 102.624 21.7375L102.625 21.7361Z" fill="#189EF1"/>
<path d="M109.578 21.9021L105.386 21.1381C105.857 19.4337 106.668 18.1731 107.819 17.3533C108.97 16.5349 110.68 16.125 112.948 16.125C115.009 16.125 116.543 16.3718 117.551 16.864C118.56 17.3562 119.27 17.9821 119.68 18.7403C120.092 19.4984 120.297 20.8898 120.297 22.9144L120.248 28.3594C120.248 29.9095 120.322 31.0511 120.469 31.7872C120.618 32.5233 120.894 33.3123 121.3 34.1527H116.729C116.608 33.8427 116.46 33.3843 116.285 32.7745C116.208 32.4983 116.154 32.3161 116.121 32.2265C115.332 33.0008 114.488 33.5826 113.589 33.969C112.689 34.3569 111.73 34.5508 110.712 34.5508C108.914 34.5508 107.497 34.0587 106.461 33.0728C105.425 32.0884 104.907 30.8425 104.907 29.338C104.907 28.3418 105.142 27.4544 105.614 26.6742C106.085 25.894 106.746 25.2961 107.595 24.8817C108.444 24.4674 109.668 24.1045 111.269 23.7945C113.429 23.3846 114.925 23.004 115.757 22.6485V22.1842C115.757 21.2879 115.537 20.6488 115.099 20.2668C114.661 19.8848 113.833 19.6938 112.617 19.6938C111.794 19.6938 111.154 19.8569 110.693 20.1831C110.233 20.5092 109.86 21.0822 109.575 21.9006L109.578 21.9021ZM115.76 25.6869C115.168 25.8867 114.23 26.1247 112.948 26.4009C111.666 26.6771 110.828 26.949 110.432 27.2149C109.83 27.6468 109.529 28.1949 109.529 28.859C109.529 29.5231 109.77 30.077 110.252 30.5516C110.734 31.0276 111.348 31.2656 112.093 31.2656C112.925 31.2656 113.72 30.9894 114.476 30.4355C115.035 30.0153 115.402 29.501 115.578 28.8913C115.699 28.4931 115.758 27.735 115.758 26.6169V25.6869H115.76Z" fill="#189EF1"/>
<path d="M132.859 16.5231V20.2417H129.703V27.3455C129.703 28.7839 129.733 29.6229 129.793 29.8609C129.852 30.0989 129.991 30.2958 130.205 30.4501C130.418 30.6058 130.679 30.6822 130.986 30.6822C131.414 30.6822 132.032 30.5323 132.844 30.2341L133.239 33.8528C132.165 34.3171 130.948 34.5507 129.589 34.5507C128.757 34.5507 128.006 34.4097 127.336 34.1276C126.667 33.8455 126.178 33.4797 125.865 33.0315C125.552 32.5834 125.337 31.9781 125.216 31.2141C125.117 30.6719 125.068 29.5759 125.068 27.9274V20.2417H122.947V16.5231H125.068V13.0204L129.704 10.2979V16.5231H132.86H132.859Z" fill="#189EF1"/>
</svg>
