<svg width="524" height="654" viewBox="0 0 524 654" fill="none" xmlns="http://www.w3.org/2000/svg">
<path fill-rule="evenodd" clip-rule="evenodd" d="M523.488 0.811401C523.772 3.0492 523.894 5.6014 523.84 8.42078L520.841 8.3635C520.892 5.66056 520.774 3.25638 520.512 1.18866L523.488 0.811401ZM522.245 23.4003C521.426 27.9331 520.276 32.8108 518.756 37.9471L515.879 37.0955C517.37 32.0595 518.494 27.2881 519.292 22.8671L522.245 23.4003ZM513.836 52.0881C512.06 56.5314 510.022 61.0942 507.697 65.7318L505.015 64.3876C507.301 59.8263 509.306 55.3407 511.05 50.9751L513.836 52.0881ZM500.46 78.8204C497.945 82.9666 495.197 87.1382 492.2 91.3053L489.764 89.5537C492.715 85.4513 495.42 81.345 497.895 77.2647L500.46 78.8204ZM483.022 103.086C479.888 106.806 476.542 110.5 472.973 114.144L470.83 112.045C474.346 108.455 477.641 104.817 480.727 101.153L483.022 103.086ZM462.129 124.432C458.475 127.654 454.628 130.817 450.578 133.905L448.759 131.52C452.752 128.475 456.544 125.357 460.145 122.182L462.129 124.432ZM438.41 142.538C434.338 145.223 430.09 147.832 425.659 150.351L424.176 147.744C428.549 145.257 432.741 142.682 436.759 140.033L438.41 142.538ZM412.453 157.319C408.087 159.452 403.564 161.5 398.881 163.453L397.726 160.684C402.355 158.754 406.824 156.73 411.137 154.623L412.453 157.319ZM384.968 168.801C380.381 170.42 375.654 171.951 370.784 173.388L369.935 170.51C374.755 169.089 379.432 167.573 383.97 165.972L384.968 168.801ZM356.388 177.249C351.66 178.394 346.808 179.454 341.831 180.421L341.258 177.476C346.192 176.517 350.998 175.468 355.681 174.333L356.388 177.249ZM327.153 182.945C324.695 183.314 322.208 183.662 319.693 183.988C317.219 184.308 314.783 184.656 312.383 185.031L311.919 182.067C314.346 181.688 316.808 181.336 319.308 181.012C321.803 180.689 324.269 180.345 326.707 179.978L327.153 182.945ZM298.092 187.68C293.23 188.729 288.534 189.901 283.997 191.19L283.177 188.305C287.777 186.997 292.537 185.81 297.46 184.748L298.092 187.68ZM270.187 195.651C265.527 197.349 261.059 199.184 256.775 201.149L255.524 198.422C259.883 196.422 264.427 194.557 269.16 192.833L270.187 195.651ZM243.9 207.752C239.626 210.193 235.565 212.782 231.708 215.508L229.976 213.058C233.913 210.276 238.056 207.635 242.412 205.147L243.9 207.752ZM220.309 224.466C216.628 227.679 213.17 231.039 209.924 234.535L207.726 232.494C211.042 228.921 214.576 225.488 218.337 222.206L220.309 224.466ZM200.658 245.629C197.752 249.501 195.06 253.507 192.57 257.633L190.002 256.083C192.542 251.873 195.29 247.784 198.259 243.828L200.658 245.629ZM185.694 270.378C183.608 274.719 181.713 279.169 179.999 283.715L177.192 282.656C178.936 278.032 180.865 273.502 182.99 269.078L185.694 270.378ZM175.432 297.476C174.096 302.095 172.922 306.794 171.901 311.562L168.968 310.934C170.003 306.1 171.193 301.332 172.55 296.643L175.432 297.476ZM169.317 325.876C168.609 330.637 168.036 335.453 167.59 340.313L164.603 340.039C165.054 335.126 165.633 330.254 166.349 325.434L169.317 325.876ZM166.632 354.834C166.432 359.66 166.345 364.518 166.362 369.398L163.362 369.409C163.345 364.486 163.433 359.583 163.634 354.71L166.632 354.834ZM166.712 383.972C166.924 388.812 167.229 393.664 167.618 398.519L164.628 398.759C164.236 393.87 163.929 388.981 163.715 384.103L166.712 383.972ZM169.027 413.034C169.575 417.868 170.199 422.694 170.891 427.504L167.922 427.931C167.226 423.093 166.598 418.237 166.046 413.372L169.027 413.034ZM173.17 441.914C173.998 446.728 174.887 451.515 175.829 456.265L172.886 456.848C171.94 452.074 171.046 447.262 170.214 442.423L173.17 441.914ZM178.838 470.559C179.368 472.938 179.909 475.304 180.46 477.658C181.065 480.239 181.524 482.797 181.842 485.331L178.865 485.705C178.561 483.277 178.121 480.822 177.54 478.342C176.986 475.978 176.442 473.601 175.91 471.211L178.838 470.559ZM182.043 500.859C181.52 506.032 180.411 511.086 178.772 516.017L175.925 515.07C177.498 510.339 178.559 505.501 179.059 500.557L182.043 500.859ZM172.474 530.167C170.015 534.559 167.14 538.84 163.897 543.009L161.529 541.167C164.689 537.105 167.478 532.949 169.856 528.701L172.474 530.167ZM153.738 554.545C150.221 558.114 146.437 561.595 142.419 564.987L140.484 562.694C144.438 559.356 148.154 555.937 151.601 552.439L153.738 554.545ZM130.369 574.408C126.309 577.36 122.078 580.237 117.7 583.041L116.082 580.514C120.414 577.74 124.596 574.896 128.605 571.982L130.369 574.408ZM104.61 590.963C100.241 593.468 95.7618 595.906 91.1935 598.279L89.8109 595.616C94.3449 593.262 98.7874 590.843 103.118 588.361L104.61 590.963ZM77.4973 605.075C72.9202 607.246 68.2775 609.356 63.5879 611.403L62.3878 608.653C67.0502 606.618 71.6641 604.522 76.2112 602.364L77.4973 605.075ZM49.5088 617.309C44.7868 619.214 40.0363 621.057 35.2754 622.837L34.2246 620.027C38.9626 618.255 43.6893 616.422 48.3866 614.527L49.5088 617.309ZM20.9186 628.012C16.0806 629.693 11.2502 631.309 6.4464 632.86L5.52467 630.005C10.3083 628.461 15.1177 626.852 19.9341 625.178L20.9186 628.012ZM-8.13834 637.399C-13.0799 638.88 -17.9717 640.29 -22.7925 641.628L-23.5947 638.737C-18.7933 637.404 -13.9212 636 -8.99972 634.525L-8.13834 637.399ZM-37.5351 645.556C-42.6035 646.851 -47.5612 648.06 -52.3806 649.182L-53.0608 646.26C-48.2623 645.143 -43.3253 643.939 -38.2776 642.65L-37.5351 645.556ZM-67.2692 652.47C-69.8054 652.999 -72.2883 653.499 -74.7128 653.972L-75.2871 651.028C-72.8755 650.557 -70.4053 650.059 -67.8814 649.533L-67.2692 652.47Z" fill="#189EF1"/>
<path d="M320.547 184.398L287.048 207.171C285.193 208.431 282.724 206.779 283.206 204.583L286.227 190.303C286.362 189.61 286.212 188.901 285.809 188.321L277.283 176.475C275.979 174.655 277.547 172.153 279.753 172.556L319.593 179.873C321.793 180.252 322.402 183.139 320.547 184.398Z" fill="#189EF1"/>
</svg>
