<svg width="48" height="48" viewBox="0 0 48 48" fill="none" xmlns="http://www.w3.org/2000/svg">
<path d="M24 3.75C21.1704 3.75 18.8684 6.05652 18.8684 8.8916C18.8684 9.50203 18.9741 10.0952 19.1774 10.6536C20.6161 9.88298 22.2579 9.44531 24 9.44531C25.7421 9.44531 27.3839 9.88298 28.8226 10.6536C29.0259 10.0952 29.1316 9.50211 29.1316 8.8916C29.1316 6.05652 26.8296 3.75 24 3.75Z" fill="#303030"/>
<path d="M17.6912 14.9729C16.6956 16.2966 16.1053 17.9434 16.1053 19.7285V21.3105C16.1053 25.6792 19.6398 29.2207 24 29.2207C28.3602 29.2207 31.8947 25.6792 31.8947 21.3105V20.915C26.6612 20.915 21.4892 18.7498 17.6912 14.9729Z" fill="#303030"/>
<path d="M24 11.8184C22.2761 11.8184 20.6815 12.3724 19.3832 13.3118C22.7171 16.6151 27.2341 18.5165 31.8062 18.5408C31.2343 14.7356 27.9572 11.8184 24 11.8184Z" fill="#303030"/>
<path d="M28.3421 31.5938H25.1842V44.25H39V42.2725C39 36.3842 34.2189 31.5938 28.3421 31.5938ZM33.0789 39.5039H28.7368V37.1309H33.0789V39.5039Z" fill="#303030"/>
<path d="M19.6579 31.5938C13.7811 31.5938 9 36.3842 9 42.2725V44.25H22.8158V31.5938H19.6579Z" fill="#303030"/>
</svg>
