<svg style="display: none;" aria-hidden="true" xmlns="http://www.w3.org/2000/svg" xmlns:xlink="http://www.w3.org/1999/xlink"><symbol viewBox="0 0 48 48" id="arrow"><path d="M18.58 13.42a1.993 1.993 0 0 0 0 2.82L26.34 24l-7.76 7.76a1.993 1.993 0 0 0 2.82 2.82l9.18-9.18a1.993 1.993 0 0 0 0-2.82L21.4 13.4c-.76-.76-2.04-.76-2.82.02Z"/></symbol><symbol viewBox="0 0 48 48" id="backpack"><path d="M40 16v24c0 2.2-1.8 4-4 4H12c-2.2 0-4-1.8-4-4V16c0-3.72 2.56-6.82 6-7.72V7c0-1.66 1.34-3 3-3s3 1.34 3 3v1h8V7c0-1.66 1.34-3 3-3s3 1.34 3 3v1.28c3.44.9 6 4 6 7.72ZM12 26c0 1.1.9 2 2 2h18v2c0 1.1.9 2 2 2s2-.9 2-2v-4c0-1.1-.9-2-2-2H14c-1.1 0-2 .9-2 2Z"/></symbol><symbol viewBox="0 0 48 48" id="car"><path d="M37.84 12.02A2.988 2.988 0 0 0 35 10H13c-1.32 0-2.42.84-2.84 2.02L6 24v16c0 1.1.9 2 2 2h2c1.1 0 2-.9 2-2v-2h24v2c0 1.1.9 2 2 2h2c1.1 0 2-.9 2-2V24l-4.16-11.98ZM13 32c-1.66 0-3-1.34-3-3s1.34-3 3-3 3 1.34 3 3-1.34 3-3 3Zm22 0c-1.66 0-3-1.34-3-3s1.34-3 3-3 3 1.34 3 3-1.34 3-3 3ZM10 22l3-9h22l3 9H10Z"/></symbol><symbol viewBox="0 0 48 48" id="check"><path d="m18 32.34-6.94-6.94a1.994 1.994 0 0 0-2.82 2.82l8.36 8.36c.78.78 2.04.78 2.82 0l21.16-21.16a1.994 1.994 0 1 0-2.82-2.82L18 32.34Z"/></symbol><symbol viewBox="0 0 48 48" id="child"><path d="M29.001 23.5a2.5 2.5 0 1 0 0-5 2.5 2.5 0 0 0 0 5Z"/><path d="M19 23.5a2.5 2.5 0 1 0 0-5 2.5 2.5 0 0 0 0 5Z"/><path d="M32.199 28h-16.4c-.38 0-.64.4-.46.74 1.66 3.14 4.92 5.26 8.66 5.26s7-2.12 8.66-5.26a.523.523 0 0 0-.46-.74Zm13.68-5.32a8.02 8.02 0 0 0-5.62-6.34 18.2 18.2 0 0 0-4.38-5.82A17.769 17.769 0 0 0 23.999 6c-4.56 0-8.72 1.7-11.88 4.52-1.84 1.62-3.34 3.6-4.38 5.82a7.98 7.98 0 0 0-5.62 6.34c-.08.42-.12.86-.12 1.32 0 .46.04.9.12 1.32a8.02 8.02 0 0 0 5.62 6.34 18 18 0 0 0 4.34 5.78A17.77 17.77 0 0 0 23.999 42c4.58 0 8.76-1.72 11.94-4.56 1.8-1.6 3.3-3.58 4.34-5.78a8 8 0 0 0 5.6-6.34c.08-.42.12-.86.12-1.32 0-.46-.04-.9-.12-1.32ZM37.999 28c-.2 0-.38-.04-.58-.06-.4 1.34-.98 2.58-1.72 3.72-2.5 3.82-6.8 6.34-11.7 6.34-4.9 0-9.2-2.52-11.7-6.34-.74-1.14-1.32-2.38-1.72-3.72-.2.02-.38.06-.58.06-2.2 0-4-1.8-4-4s1.8-4 4-4c.2 0 .38.04.58.06.4-1.34.98-2.58 1.72-3.72 2.5-3.82 6.8-6.34 11.7-6.34 4.9 0 9.2 2.52 11.7 6.34.74 1.14 1.32 2.38 1.72 3.72.2-.02.38-.06.58-.06 2.2 0 4 1.8 4 4s-1.8 4-4 4Z"/></symbol><symbol viewBox="0 0 48 48" id="city"><path d="M30 22V11.66c0-1.06-.42-2.08-1.18-2.82L25.4 5.42a1.991 1.991 0 0 0-2.82 0l-3.4 3.4c-.76.76-1.18 1.78-1.18 2.84V14h-8c-2.2 0-4 1.8-4 4v20c0 2.2 1.8 4 4 4h28c2.2 0 4-1.8 4-4V26c0-2.2-1.8-4-4-4h-8ZM14 38h-4v-4h4v4Zm0-8h-4v-4h4v4Zm0-8h-4v-4h4v4Zm12 16h-4v-4h4v4Zm0-8h-4v-4h4v4Zm0-8h-4v-4h4v4Zm0-8h-4v-4h4v4Zm12 24h-4v-4h4v4Zm0-8h-4v-4h4v4Z"/></symbol><symbol viewBox="0 0 48 48" id="double-arrow"><path d="M11.753 13.774a1.516 1.516 0 0 1 2.133 0l9.16 9.16a1.492 1.492 0 0 1 0 2.112l-9.18 9.18a1.496 1.496 0 0 1-2.113 0 1.493 1.493 0 0 1 0-2.112l7.76-7.76.354-.354-.354-.354-7.76-7.76a1.493 1.493 0 0 1 0-2.112Z" stroke="#303030"/><path d="M24.933 13.774c.589-.588 1.552-.582 2.114-.02l9.18 9.18a1.49 1.49 0 0 1 0 2.112l-9.18 9.18a1.494 1.494 0 1 1-2.113-2.112l7.76-7.76.353-.354-.353-.354-7.76-7.76a1.492 1.492 0 0 1 0-2.112Z" stroke="#303030"/></symbol><symbol viewBox="0 0 48 48" id="excursion-list"><path d="M8 21c-1.66 0-3 1.34-3 3s1.34 3 3 3 3-1.34 3-3-1.34-3-3-3ZM8 9c-1.66 0-3 1.34-3 3s1.34 3 3 3 3-1.34 3-3-1.34-3-3-3Zm0 24c-1.66 0-3 1.36-3 3s1.36 3 3 3 3-1.36 3-3-1.34-3-3-3Zm8 5h24c1.1 0 2-.9 2-2s-.9-2-2-2H16c-1.1 0-2 .9-2 2s.9 2 2 2Zm0-12h24c1.1 0 2-.9 2-2s-.9-2-2-2H16c-1.1 0-2 .9-2 2s.9 2 2 2Zm-2-14c0 1.1.9 2 2 2h24c1.1 0 2-.9 2-2s-.9-2-2-2H16c-1.1 0-2 .9-2 2Z"/></symbol><symbol viewBox="0 0 48 48" id="feedback"><path d="M38 6H10c-2.2 0-4 1.8-4 4v28c0 2.2 1.8 4 4 4h28c2.2 0 4-1.8 4-4V10c0-2.2-1.8-4-4-4ZM26 34H16c-1.1 0-2-.9-2-2s.9-2 2-2h10c1.1 0 2 .9 2 2s-.9 2-2 2Zm6-8H16c-1.1 0-2-.9-2-2s.9-2 2-2h16c1.1 0 2 .9 2 2s-.9 2-2 2Zm0-8H16c-1.1 0-2-.9-2-2s.9-2 2-2h16c1.1 0 2 .9 2 2s-.9 2-2 2Z"/></symbol><symbol viewBox="0 0 48 48" id="flag"><path d="m28.8 12-.48-2.4c-.18-.92-1-1.6-1.96-1.6H12c-1.1 0-2 .9-2 2v30c0 1.1.9 2 2 2s2-.9 2-2V28h11.2l.48 2.4c.18.94 1 1.6 1.96 1.6H38c1.1 0 2-.9 2-2V14c0-1.1-.9-2-2-2h-9.2Z"/></symbol><symbol viewBox="0 0 48 48" id="full-star"><path d="M24 34.54 36.36 42l-3.28-14.06L44 18.48l-14.38-1.22L24 4l-5.62 13.26L4 18.48l10.92 9.46L11.64 42 24 34.54Z"/></symbol><symbol viewBox="0 0 48 48" id="group"><g clip-path="url(#alclip0_68_5941)"><path d="M24 25.5c3.26 0 6.14.78 8.48 1.8 2.16.96 3.52 3.12 3.52 5.46V36H12v-3.22c0-2.36 1.36-4.52 3.52-5.46A20.88 20.88 0 0 1 24 25.5ZM8 26c2.2 0 4-1.8 4-4s-1.8-4-4-4-4 1.8-4 4 1.8 4 4 4Zm2.26 2.2C9.52 28.08 8.78 28 8 28c-1.98 0-3.86.42-5.56 1.16A4.02 4.02 0 0 0 0 32.86V36h9v-3.22c0-1.66.46-3.22 1.26-4.58ZM40 26c2.2 0 4-1.8 4-4s-1.8-4-4-4-4 1.8-4 4 1.8 4 4 4Zm8 6.86c0-1.62-.96-3.06-2.44-3.7A13.901 13.901 0 0 0 40 28c-.78 0-1.52.08-2.26.2.8 1.36 1.26 2.92 1.26 4.58V36h9v-3.14ZM24 12c3.32 0 6 2.68 6 6s-2.68 6-6 6-6-2.68-6-6 2.68-6 6-6Z"/></g><defs><clipPath id="alclip0_68_5941"><rect width="48" height="48"/></clipPath></defs></symbol><symbol viewBox="0 0 48 48" id="guide"><path d="M24 3.75c-2.83 0-5.132 2.307-5.132 5.142 0 .61.106 1.203.31 1.762A10.184 10.184 0 0 1 24 9.445c1.742 0 3.384.438 4.823 1.209a5.137 5.137 0 0 0 .309-1.762c0-2.835-2.302-5.142-5.132-5.142Z"/><path d="M17.691 14.973a7.884 7.884 0 0 0-1.586 4.755v1.582c0 4.37 3.535 7.91 7.895 7.91 4.36 0 7.895-3.54 7.895-7.91v-.395c-5.234 0-10.406-2.165-14.204-5.942Z"/><path d="M24 11.818a7.848 7.848 0 0 0-4.617 1.494c3.334 3.303 7.851 5.205 12.423 5.229-.572-3.805-3.849-6.723-7.806-6.723Z"/><path d="M28.342 31.594h-3.158V44.25H39v-1.977c0-5.889-4.781-10.68-10.658-10.68Zm4.737 7.91h-4.342V37.13h4.342v2.373Z"/><path d="M19.658 31.594C13.78 31.594 9 36.384 9 42.272v1.978h13.816V31.594h-3.158Z"/></symbol><symbol viewBox="0 0 48 48" id="half-star"><path d="m44 18.48-14.38-1.24L24 4l-5.62 13.26L4 18.48l10.92 9.46L11.64 42 24 34.54 36.36 42 33.1 27.94 44 18.48ZM24 30.8V12.2l3.42 8.08 8.76.76-6.64 5.76 2 8.56L24 30.8Z"/></symbol><symbol viewBox="0 0 48 48" id="int-exc"><path d="M6 22a2 2 0 0 1 2-2h18a2 2 0 1 1 0 4H8a2 2 0 0 1-2-2Zm0-8a2 2 0 0 1 2-2h18a2 2 0 1 1 0 4H8a2 2 0 0 1-2-2Zm0 16a2 2 0 0 1 2-2h10a2 2 0 1 1 0 4H8a2 2 0 0 1-2-2Zm36.59-4.73a1.995 1.995 0 0 0-2.82-.003l-6.736 6.72a.5.5 0 0 1-.707 0L29.85 29.51a1.995 1.995 0 0 0-2.824 2.82l5.3 5.314a.5.5 0 0 0 .707 0l9.555-9.554c.78-.78.78-2.043 0-2.822Z"/></symbol><symbol viewBox="0 0 48 48" id="language"><path d="M23.981 4c-11.04 0-19.98 8.96-19.98 20s8.94 20 19.98 20c11.06 0 20.02-8.96 20.02-20s-8.96-20-20.02-20Zm13.86 12h-5.9a31.403 31.403 0 0 0-2.76-7.12 16.06 16.06 0 0 1 8.66 7.12Zm-13.84-7.92c1.66 2.4 2.96 5.06 3.82 7.92h-7.64c.86-2.86 2.16-5.52 3.82-7.92ZM8.521 28c-.32-1.28-.52-2.62-.52-4s.2-2.72.52-4h6.76c-.16 1.32-.28 2.64-.28 4 0 1.36.12 2.68.28 4h-6.76Zm1.64 4h5.9c.64 2.5 1.56 4.9 2.76 7.12a16 16 0 0 1-8.66-7.12Zm5.9-16h-5.9a16 16 0 0 1 8.66-7.12 31.399 31.399 0 0 0-2.76 7.12Zm7.94 23.92c-1.66-2.4-2.96-5.06-3.82-7.92h7.64c-.86 2.86-2.16 5.52-3.82 7.92ZM28.681 28h-9.36c-.18-1.32-.32-2.64-.32-4 0-1.36.14-2.7.32-4h9.36c.18 1.3.32 2.64.32 4 0 1.36-.14 2.68-.32 4Zm.5 11.12c1.2-2.22 2.12-4.62 2.76-7.12h5.9a16.06 16.06 0 0 1-8.66 7.12ZM32.721 28c.16-1.32.28-2.64.28-4 0-1.36-.12-2.68-.28-4h6.76c.32 1.28.52 2.62.52 4s-.2 2.72-.52 4h-6.76Z"/></symbol><symbol viewBox="0 0 48 48" id="location"><path d="M24 4c-7.74 0-14 6.26-14 14 0 10.5 14 26 14 26s14-15.5 14-26c0-7.74-6.26-14-14-14Zm0 19a5 5 0 1 1 0-10 5 5 0 0 1 0 10Z"/></symbol><symbol viewBox="0 0 48 48" id="map"><path d="m41 6-.32.06L30 10.2 18 6 6.72 9.8c-.42.14-.72.5-.72.96V41c0 .56.44 1 1 1l.32-.06L18 37.8 30 42l11.28-3.8c.42-.14.72-.5.72-.96V7c0-.56-.44-1-1-1ZM30 38l-12-4.22V10l12 4.22V38Z"/></symbol><symbol viewBox="0 0 48 48" id="mark"><path d="m38 36 4 2V6c0-2.2-1.8-4-4-4H17.98C15.78 2 14 3.8 14 6h20c2.2 0 4 1.8 4 4v26Zm-8-26H10c-2.2 0-4 1.8-4 4v32l14-6 14 6V14c0-2.2-1.8-4-4-4Z"/></symbol><symbol viewBox="0 0 48 48" id="menu"><path d="M8 36h32c1.1 0 2-.9 2-2s-.9-2-2-2H8c-1.1 0-2 .9-2 2s.9 2 2 2Zm0-10h32c1.1 0 2-.9 2-2s-.9-2-2-2H8c-1.1 0-2 .9-2 2s.9 2 2 2ZM6 14c0 1.1.9 2 2 2h32c1.1 0 2-.9 2-2s-.9-2-2-2H8c-1.1 0-2 .9-2 2Z"/></symbol><symbol viewBox="0 0 48 48" id="minus"><path d="M36 25.996H12a2 2 0 0 1 0-4h24a2 2 0 0 1 0 4Z"/></symbol><symbol viewBox="0 0 48 48" id="no-exc"><path d="M27.42 42.6c.78.78 2.04.78 2.82 0L34 38.82l3.78 3.78a1.996 1.996 0 0 0 3.252-.647 1.994 1.994 0 0 0-.432-2.173L36.82 36l3.78-3.78a1.996 1.996 0 0 0-.647-3.252 1.994 1.994 0 0 0-2.173.432L34 33.18l-3.78-3.78a1.994 1.994 0 1 0-2.82 2.82L31.18 36l-3.78 3.78c-.76.76-.76 2.04.02 2.82ZM28 22c0-1.1-.9-2-2-2H8c-1.1 0-2 .9-2 2s.9 2 2 2h18c1.1 0 2-.9 2-2Zm0-8c0-1.1-.9-2-2-2H8c-1.1 0-2 .9-2 2s.9 2 2 2h18c1.1 0 2-.9 2-2ZM6 30c0 1.1.9 2 2 2h10c1.1 0 2-.9 2-2s-.9-2-2-2H8c-1.1 0-2 .9-2 2Z"/></symbol><symbol viewBox="0 0 48 48" id="no-money"><path d="M42.804 11.075h-24.59a1.45 1.45 0 0 0-1.022.421 1.436 1.436 0 0 0 0 2.036c.27.27.639.421 1.022.421h23.143v20.154a1.45 1.45 0 0 0-1.023.422 1.436 1.436 0 0 0 0 2.035c.272.27.64.422 1.023.422h1.447a1.45 1.45 0 0 0 1.022-.422c.272-.27.424-.636.424-1.017V12.514c0-.382-.152-.748-.424-1.018a1.45 1.45 0 0 0-1.022-.421Z"/><path d="M28.34 24.03c0 .382.152.748.423 1.018a1.45 1.45 0 0 0 2.045 0c.272-.27.424-.636.424-1.018a7.18 7.18 0 0 0-2.118-5.09A7.25 7.25 0 0 0 24 16.834a1.45 1.45 0 0 0-1.023.421 1.436 1.436 0 0 0 0 2.036c.271.27.64.422 1.023.422a4.35 4.35 0 0 1 3.068 1.265 4.308 4.308 0 0 1 1.271 3.053Z"/><path d="M7.67 7.173a1.456 1.456 0 0 0-2.054 0 1.442 1.442 0 0 0 0 2.044l1.88 1.857h-2.3a1.45 1.45 0 0 0-1.022.422c-.272.27-.424.636-.424 1.018v23.033c0 .381.152.747.424 1.017.27.27.639.422 1.022.422h28.336l5.352 5.34a1.456 1.456 0 0 0 2.48-1.021c0-.384-.154-.751-.426-1.023L7.67 7.173Zm12.063 16.094 5.034 5.082a4.46 4.46 0 0 1-.767 0 4.35 4.35 0 0 1-3.068-1.265 4.308 4.308 0 0 1-1.271-3.054c.002-.256.026-.511.072-.763Zm-13.09 10.84V13.953h3.746l7.073 7.04a7.167 7.167 0 0 0 1.459 8.092 7.264 7.264 0 0 0 8.131 1.452l3.587 3.57H6.643Z"/></symbol><symbol viewBox="0 0 48 48" id="null-star"><path d="m44 18.48-14.38-1.24L24 4l-5.62 13.26L4 18.48l10.92 9.46L11.64 42 24 34.54 36.36 42 33.1 27.94 44 18.48ZM24 30.8l-7.52 4.54 2-8.56-6.64-5.76 8.76-.76L24 12.2l3.42 8.08 8.76.76-6.64 5.76 2 8.56L24 30.8Z"/></symbol><symbol viewBox="0 0 48 48" id="online"><path clip-rule="evenodd" d="m24.95 28.431 2.814 2.813h-3.881V37h3.868c.437 0 .793.355.793.795v1.16c0 .44-.356.794-.793.794H13.424a.794.794 0 0 1-.795-.795v-1.159c0-.44.356-.795.795-.795h3.868v-5.757H6.605a2.86 2.86 0 0 1-2.855-2.856V11.105A2.86 2.86 0 0 1 6.605 8.25H34.57a2.859 2.859 0 0 1 2.855 2.84 4.18 4.18 0 0 0-2.482 1.203l-.33.33v-1.56H6.562V28.43H24.95Z"/><path d="m44.766 20.978-3.143-3.14-11.227 11.227 3.14 3.139a.796.796 0 0 0 1.132 0L44.766 22.11a.798.798 0 0 0 0-1.132Z"/><path d="M37.352 14.698 27.255 24.79a.8.8 0 0 0 0 1.133L28.53 27.2l11.23-11.227-1.277-1.275a.79.79 0 0 0-.565-.235.794.794 0 0 0-.566.235Z"/></symbol><symbol viewBox="0 0 48 48" id="plus"><path d="M36 25.996H26v10a2 2 0 0 1-4 0v-10H12a2 2 0 0 1 0-4h10v-10a2 2 0 0 1 4 0v10h10a2 2 0 0 1 0 4Z"/></symbol><symbol viewBox="0 0 48 48" id="search"><path d="M31 28h-1.58l-.56-.54a13.002 13.002 0 0 0 2.96-10.68c-.94-5.56-5.58-10-11.18-10.68A13.01 13.01 0 0 0 6.1 20.64c.68 5.6 5.12 10.24 10.68 11.18a13 13 0 0 0 10.68-2.96l.54.56V31l8.5 8.5c.82.82 2.16.82 2.98 0 .82-.82.82-2.16 0-2.98L31 28Zm-12 0c-4.98 0-9-4.02-9-9s4.02-9 9-9 9 4.02 9 9-4.02 9-9 9Z"/></symbol><symbol viewBox="0 0 48 48" id="time"><path d="M23.98 4C12.94 4 4 12.96 4 24s8.94 20 19.98 20C35.04 44 44 35.04 44 24S35.04 4 23.98 4ZM24 40c-8.84 0-16-7.16-16-16S15.16 8 24 8s16 7.16 16 16-7.16 16-16 16Zm-.44-26h-.12c-.8 0-1.44.64-1.44 1.44v9.44c0 .7.36 1.36.98 1.72l8.3 4.98c.68.4 1.56.2 1.96-.48a1.42 1.42 0 0 0-.5-1.98L25 24.52v-9.08c0-.8-.64-1.44-1.44-1.44Z"/></symbol><symbol viewBox="0 0 48 48" id="warranty"><path d="m24 4.8 3.725 3.29 4.82-1.389 1.892 4.54 4.96.788-.315 4.89 4.118 2.809L40.74 24l2.46 4.273-4.118 2.808.315 4.89-4.96.789-1.892 4.539-4.82-1.388L24 43.2l-3.725-3.29-4.82 1.388-1.892-4.54-4.96-.788.315-4.89L4.8 28.273 7.26 24 4.8 19.728l4.118-2.809-.315-4.89 4.96-.788 1.892-4.54 4.82 1.388L24 4.8Z"/><path d="m21.046 28.003-3.417-3.331a.995.995 0 0 0-.694-.28c-.26 0-.51.1-.694.28a.945.945 0 0 0-.213 1.043c.05.116.121.222.213.31l4.116 4.013a.999.999 0 0 0 1.388 0l10.418-10.157a.945.945 0 0 0 .288-.676.945.945 0 0 0-.288-.677.995.995 0 0 0-.694-.28c-.26 0-.51.1-.694.28l-9.73 9.475Z"/></symbol></svg>