<svg width="48" height="48" viewBox="0 0 48 48" fill="none" xmlns="http://www.w3.org/2000/svg">
<path d="M6 22C6 20.8954 6.89543 20 8 20H26C27.1046 20 28 20.8954 28 22C28 23.1046 27.1046 24 26 24H8C6.89543 24 6 23.1046 6 22ZM6 14C6 12.8954 6.89543 12 8 12H26C27.1046 12 28 12.8954 28 14C28 15.1046 27.1046 16 26 16H8C6.89543 16 6 15.1046 6 14ZM6 30C6 28.8954 6.89543 28 8 28H18C19.1046 28 20 28.8954 20 30C20 31.1046 19.1046 32 18 32H8C6.89543 32 6 31.1046 6 30ZM42.5892 25.2692C41.8106 24.4906 40.5486 24.4899 39.7692 25.2675L33.0336 31.9873C32.8382 32.1821 32.522 32.182 32.3269 31.9869L29.851 29.511C29.0717 28.7317 27.8083 28.7317 27.029 29.511C26.2505 30.2895 26.2496 31.5514 27.027 32.331L32.3264 37.6454C32.5216 37.8412 32.8386 37.8414 33.0341 37.6459L42.5892 28.0908C43.3684 27.3117 43.3684 26.0484 42.5892 25.2692Z" fill="#303030"/>
</svg>
