<svg width="48" height="48" viewBox="0 0 48 48" fill="none" xmlns="http://www.w3.org/2000/svg">
<path fill-rule="evenodd" clip-rule="evenodd" d="M24.9502 28.431L27.7639 31.2435H23.8828V37.0009H27.751C28.1876 37.0009 28.5439 37.3557 28.5439 37.7961V38.9553C28.5439 39.3953 28.1879 39.75 27.751 39.75H13.4237C12.9848 39.75 12.6292 39.3949 12.6292 38.9553V37.7963C12.6292 37.3564 12.9851 37.001 13.4237 37.001H17.2918V31.2436H6.60462C5.03229 31.2436 3.75 29.9616 3.75 28.3882V11.1055C3.75 9.53203 5.03231 8.25 6.60462 8.25H34.5712C36.1398 8.25 37.417 9.52306 37.4257 11.0894C36.4894 11.1984 35.62 11.6171 34.9445 12.2931L34.6144 12.6233V11.0624H6.56196V28.431H24.9502Z" fill="#303030"/>
<path d="M44.7662 20.9779L41.6231 17.8373L30.3963 29.0649L33.5365 32.2037C33.6918 32.3602 33.8975 32.4386 34.1026 32.4386C34.3076 32.4386 34.5119 32.3602 34.6677 32.2037L44.7662 22.1098C44.9161 21.9603 45 21.7572 45 21.5435C45.0001 21.3315 44.9161 21.1276 44.7662 20.9779Z" fill="#303030"/>
<path d="M37.3518 14.6978L27.2548 24.7911C27.1043 24.9412 27.0192 25.1444 27.0192 25.358C27.0192 25.5702 27.1043 25.7733 27.2548 25.9235L28.5304 27.1997L39.7601 15.9733L38.4829 14.6978C38.3284 14.5408 38.1233 14.4629 37.9177 14.4629C37.7126 14.4629 37.5074 14.5408 37.3518 14.6978Z" fill="#303030"/>
</svg>
